Coordinates
version=1
nRows=19
nColumns=36
inDegrees=yes

Units are S.I. units (second, meters, Newtons, ...)
If the header above contains a line with 'inDegrees', this indicates whether rotational values are in degrees (yes) or radians (no).

endheader
time	pelvis_tilt	pelvis_list	pelvis_rotation	pelvis_tx	pelvis_ty	pelvis_tz	hip_flexion_r	hip_adduction_r	hip_rotation_r	knee_angle_r	knee_angle_r_beta	ankle_angle_r	subtalar_angle_r	mtp_angle_r	hip_flexion_l	hip_adduction_l	hip_rotation_l	knee_angle_l	knee_angle_l_beta	ankle_angle_l	subtalar_angle_l	mtp_angle_l	lumbar_extension	lumbar_bending	lumbar_rotation	arm_flex_r	arm_add_r	arm_rot_r	elbow_flex_r	pro_sup_r	arm_flex_l	arm_add_l	arm_rot_l	elbow_flex_l	pro_sup_l
      4.46250000	      3.21837911	      1.78666083	     -2.44762050	      0.38180207	      1.00514888	     -0.09854137	     -2.96459976	     -6.22207128	      7.14893839	     10.03464434	      0.17513758	     11.51435407	    -10.81238566	     -7.49999987	     -3.38851308	      1.39371294	      6.19795562	     11.41132460	      0.19916519	      9.56269486	    -17.37756498	     -7.49999987	    -12.91825349	     -0.39699636	     -0.79110102	      7.98250589	     -5.32841781	     15.93246785	     42.18651428	     94.71932405	     11.95226133	     -4.01833228	      9.83463286	     33.63783549	     95.69853980
      4.46666670	      3.26247068	      1.78429471	     -2.42236700	      0.38207944	      1.00536701	     -0.09768048	     -3.00277688	     -6.21531825	      7.11753144	     10.05244712	      0.17544830	     11.57687165	    -10.73866983	     -7.49999987	     -3.36440448	      1.38366348	      6.11198269	     11.51958436	      0.20105468	      9.65343835	    -17.39777073	     -7.49999987	    -12.98507790	     -0.37852677	     -0.86401495	      8.00795416	     -5.32779408	     16.14564611	     42.14151363	     93.44261687	     12.03903335	     -4.06885811	      9.87251554	     33.71658619	     94.41477222
      4.47083330	      3.11341703	      1.77934267	     -2.36888661	      0.38337348	      1.00473550	     -0.09618925	     -2.89538519	     -6.13362650	      7.19624605	     10.07558741	      0.17585217	     11.55143515	    -10.81413289	     -7.49999987	     -3.20101437	      1.32049213	      6.11141140	     11.56781387	      0.20189644	      9.54484986	    -17.57576847	     -7.49999987	    -12.73522252	     -0.40852795	     -0.88785910	      7.92816840	     -5.37334765	     16.69768233	     42.02575161	     93.86155088	     12.00384057	     -4.32039773	     10.46895439	     33.85899000	     95.00771218
      4.47500000	      3.15854819	      1.73214142	     -2.43179508	      0.38128957	      1.00453554	     -0.09693815	     -2.88730200	     -6.07524088	      7.22523780	     10.15260377	      0.17719636	     11.66450016	    -10.78453101	     -7.49999987	     -3.23019887	      1.26463141	      6.11232788	     11.56201221	      0.20179518	      9.45250744	    -17.80025782	     -7.49999987	    -12.87893521	     -0.35070014	     -0.84310309	      7.94611725	     -5.54719765	     17.40635914	     42.32689932	     90.10735538	     12.05953140	     -4.39907448	     10.87908705	     34.14807888	     91.25395503
      4.47916670	      3.11730591	      1.71670027	     -2.44616691	      0.38057140	      1.00564578	     -0.09776796	     -2.79717442	     -6.03757818	      7.28178299	     10.16417940	      0.17739840	     11.52100137	    -11.01905995	     -7.49999987	     -3.12372810	      1.23311206	      6.05183957	     11.60318207	      0.20251373	      9.50963535	    -17.64444804	     -7.49999987	    -12.87450503	     -0.35209520	     -0.80450711	      7.97228081	     -5.55120207	     17.37269607	     42.24852487	     88.89612642	     12.13972024	     -4.38647115	     10.88368876	     34.19351759	     90.05753093
      4.48333330	      3.00448063	      1.70268854	     -2.50754784	      0.38081915	      1.00487338	     -0.09774593	     -2.60937476	     -6.02102532	      7.43884469	     10.21125712	      0.17822006	     11.47794671	    -11.16413009	     -7.49999987	     -2.96210816	      1.22408849	      6.00534255	     11.64505832	      0.20324461	      9.53423886	    -17.66706636	     -7.49999987	    -12.80885089	     -0.26833929	     -0.74081347	      7.89461612	     -5.58790144	     16.78113377	     42.38392628	     94.39268741	     12.23226167	     -4.38330992	     10.42877064	     34.30660352	     95.60589118
      4.48750000	      2.97739994	      1.67267719	     -2.52014871	      0.38027547	      1.00366868	     -0.09699063	     -2.52885896	     -5.97982060	      7.50946178	     10.24617518	      0.17882949	     11.36623790	    -11.46633085	     -7.49999987	     -2.85448065	      1.19296691	      6.04444580	     11.75771183	      0.20521078	      9.51266018	    -17.84030483	     -7.49999987	    -12.78995968	     -0.21299566	     -0.80521273	      8.02577356	     -5.73404036	     17.52399457	     42.32259839	     92.98835189	     12.35222476	     -4.58594144	     11.20850271	     34.35182349	     94.48098382
      4.49166670	      2.96760236	      1.67202880	     -2.55240758	      0.38024884	      1.00462934	     -0.09647024	     -2.47661271	     -5.96035664	      7.45238258	     10.26742389	      0.17920035	     11.43283405	    -11.22011246	     -7.49999987	     -2.81803227	      1.18646057	      6.09551686	     11.77982017	      0.20559665	      9.45888915	    -17.82580922	     -7.49999987	    -12.81374828	     -0.20427069	     -0.80046341	      7.97988732	     -5.70762441	     17.43639955	     42.44384670	     91.05142188	     12.35083527	     -4.57093950	     11.00850950	     34.54502433	     92.56166944
      4.49583330	      3.00249730	      1.59827084	     -2.61660104	      0.38054948	      1.00145518	     -0.09447396	     -2.48307965	     -5.81265106	      7.66676048	     10.29905179	      0.17975236	     11.54716644	    -11.33746723	     -7.49999987	     -2.81191501	      1.06930475	      5.99391125	     11.90468181	      0.20777589	      9.64450375	    -17.75468198	     -7.49999987	    -12.82359811	     -0.18188153	     -0.74257882	      7.99729824	     -5.74442314	     17.84095346	     42.45346603	     90.38428982	     12.39879290	     -4.66634112	     11.21223188	     34.64220223	     91.86304225
      4.50000000	      2.98561038	      1.60074321	     -2.63029384	      0.38014994	      1.00628905	     -0.09605890	     -2.44441168	     -5.81248822	      7.65791587	     10.34751689	      0.18059824	     11.53603331	    -11.31291712	     -7.49999987	     -2.77575063	      1.07138440	      5.98384424	     11.94920930	      0.20855305	      9.63292948	    -17.70895367	     -7.49999987	    -12.81558364	     -0.18612472	     -0.74458167	      7.99467680	     -5.74398883	     17.84199118	     42.46957359	     90.35918767	     12.40168379	     -4.66879771	     11.21227256	     34.66647357	     91.83567396
      4.50416670	      2.79548022	      1.59802708	     -2.66527747	      0.37922837	      1.00371827	     -0.09499527	     -2.25848220	     -5.78459679	      7.77779996	     10.24483577	      0.17880612	     11.64717839	    -11.18401159	     -7.49999987	     -2.51309348	      1.03144823	      5.83026247	     12.04950246	      0.21030349	      9.69596337	    -17.46093387	     -7.49999987	    -12.62381331	     -0.28704440	     -0.79338081	      7.99279328	     -5.78262060	     17.95837312	     42.44760673	     94.00615587	     12.33922775	     -4.80990796	     10.92089813	     34.95212280	     95.64831716
      4.50833330	      2.81667359	      1.60556066	     -2.67382566	      0.38093667	      1.00694237	     -0.09669416	     -2.36906378	     -5.81802175	      7.84018955	     10.10247629	      0.17632147	     11.40041197	    -11.28059632	     -7.49999987	     -2.58787364	      1.04521049	      5.82035553	     11.98875337	      0.20924322	      9.58377441	    -17.30045597	     -7.49999987	    -12.65082182	     -0.29299560	     -0.79945549	      7.97286688	     -5.85023646	     18.29831142	     42.35786520	     91.27024534	     12.31541375	     -4.79501690	     11.17957817	     34.95938308	     92.92026319
      4.51250000	      2.76918033	      1.58416477	     -2.68839181	      0.37936492	      1.00333141	     -0.09470265	     -2.30874698	     -5.77997005	      7.86160109	     10.06587966	      0.17568274	     11.46221427	    -11.24899141	     -7.49999987	     -2.53255615	      1.01252397	      5.76991021	     11.97637953	      0.20902726	      9.67126324	    -17.34111117	     -7.49999987	    -12.66649359	     -0.31261293	     -0.79888704	      7.96262516	     -5.83290841	     18.33147448	     42.37129994	     91.27613858	     12.39898050	     -4.84629003	     11.18513083	     35.01141796	     92.92286360
      4.51666670	      2.79699277	      1.57137908	     -2.74210074	      0.37910327	      1.00201573	     -0.09389624	     -2.30811713	     -5.73135386	      7.96899092	     10.10090665	      0.17629408	     11.53431263	    -11.23078637	     -7.49999987	     -2.55413826	      0.97344426	      5.77361649	     11.97234855	      0.20895690	      9.63488382	    -17.53413262	     -7.49999987	    -12.69919058	     -0.35052919	     -0.74250662	      7.93621609	     -5.86455836	     18.58430645	     42.50953614	     89.67023386	     12.36560688	     -4.95423048	     11.35301279	     35.34175412	     91.36847830
      4.52083330	      2.64354881	      1.57591110	     -2.78386058	      0.37912413	      1.00321304	     -0.09422205	     -2.13287359	     -5.72083841	      7.95809175	     10.08223636	      0.17596822	     11.63807543	    -11.02989463	     -7.49999987	     -2.39463819	      0.93285033	      5.59820373	     11.94419033	      0.20846545	      9.83305691	    -17.11756424	     -7.49999987	    -12.50209574	     -0.34855918	     -0.70205364	      7.86091294	     -5.94208985	     19.00602106	     42.55102983	     87.62267492	     12.32225306	     -5.02574962	     11.63679029	     35.53717853	     89.27580007
      4.52500000	      2.62916588	      1.54053429	     -2.79013216	      0.37853260	      1.00297739	     -0.09381295	     -2.09552496	     -5.65075938	      8.08742707	     10.08301792	      0.17598186	     11.74210556	    -11.16539458	     -7.49999987	     -2.31958278	      0.87063647	      5.64379394	     12.01457034	      0.20969381	      9.83587703	    -17.25913176	     -7.49999987	    -12.56391584	     -0.33523858	     -0.68045237	      7.97403540	     -6.04217548	     19.09785547	     42.51893918	     93.30653853	     12.47980120	     -5.16858393	     11.71286565	     35.50797050	     95.27209092
      4.52916670	      2.58557988	      1.50821918	     -2.82419204	      0.37864736	      1.00143349	     -0.09283256	     -2.04266818	     -5.56777319	      8.15895573	     10.09024763	      0.17610804	     11.77838921	    -11.24483225	     -7.49999987	     -2.27274363	      0.80090713	      5.58966123	     11.99241460	      0.20930712	      9.94389970	    -17.16283717	     -7.49999987	    -12.51565594	     -0.38956722	     -0.63209693	      7.87731258	     -5.99737011	     19.13128243	     42.58935303	     92.87975895	     12.47044300	     -5.20063951	     11.59033921	     35.66022445	     94.85162621
      4.53333330	      2.49662036	      1.49314366	     -2.82764153	      0.37793810	      1.00241177	     -0.09386845	     -1.92643301	     -5.51416949	      8.29566083	     10.11669372	      0.17656961	     11.72243554	    -11.39768727	     -7.49999987	     -2.14889183	      0.76825368	      5.58468826	     11.99714154	      0.20938962	      9.90975958	    -17.23852617	     -7.49999987	    -12.49609849	     -0.37619184	     -0.60976762	      7.83239870	     -6.06349109	     19.20260560	     42.70174824	     92.35528496	     12.50677089	     -5.18832147	     11.58107504	     35.82484005	     94.39177532
      4.53750000	      2.39985679	      1.46653368	     -2.86713162	      0.37871834	      1.00163291	     -0.09373506	     -1.84071098	     -5.47209809	      8.28765975	     10.09696361	      0.17622526	     11.71055922	    -11.42405211	     -7.49999987	     -2.06507194	      0.72064653	      5.48636599	     11.96962374	      0.20890934	     10.05108502	    -16.97857469	     -7.49999987	    -12.31542925	     -0.34707551	     -0.60280779	      7.84301347	     -6.11695697	     19.86400304	     42.55586410	     91.07995399	     12.44542987	     -5.23603339	     11.98013096	     35.86829416	     93.01291576
